{"title":"Blue Valentine (2010).BRrip.XviD - Italian English.Ac3 - 5.1 - S","uid":11727604,"size":2026286967,"categoryP":"video","categoryS":"movies","magnet":"?xt=urn:btih:db5d306d282f7bd6189eee8d73b7670471ea2702&amp;dn=Blue+Valentine+%282010%29.BRrip.XviD+-+Italian+English.Ac3+-+5.1+-+S&amp;tr=udp%3A%2F%2Ftracker.openbittorrent.com%3A80&amp;tr=udp%3A%2F%2Fopen.demonii.com%3A1337&amp;tr=udp%3A%2F%2Ftracker.coppersurfer.tk%3A6969&amp;tr=udp%3A%2F%2Fexodus.desync.com%3A6969","seeders":11,"leechers":1,"uploader":"robbyrs4","files":3,"time":1425141466,"description":"Blue Valentine (2010).BRrip.XviD - Italian English.Ac3 - 5.1 - Sub Ita Eng.MIRCrew\n\n\n\n[center]\n\n[color=red][b][img]http://s19.postimg.org/rr1b4yhxv/banner_mircrew_2015.png[/img]\n\n[u]NO FOUND ONLY ORIGINAL RELEASE[/u]\n\nBlue Valentine (2010)\n\n[img]http://s19.postimg.org/whfqb085v/image.jpg[/img]\n\n\n[URL=http://www.imdb.com/title/tt1120985/][IMG]http://www.userlogos.org/files/logos/Sucka/imdb_new.png[/IMG][/URL]  \n\n[img]http://s19.postimg.org/vz5tzn42b/1_scheda.png[/img]\n\noriginale \tBlue Valentine\nPaese di produzione \tUSA\nAnno \t2010\nDurata \t112 min\nGenere \tdrammatico\nRegia \tDerek Cianfrance\nSceneggiatura \tDerek Cianfrance, Joey Curtis e Cami Delavigne\nProduttore \tJamie Patricof, Lynette Howell, Alex Orlovsky, Carrie Fix (co-produttore)\nProduttore esecutivo \tDoug Dey, Jack Lechner, Scott Osman, Ryan Gosling, Michelle Williams\nCasa di produzione \tIncentive Filmed Entertainment, Silverwood Films, Hunting Lane Films\nDistribuzione (Italia) \tMovies Inspired\nFotografia \tAndrij Parekh\nMontaggio \tJim Helton e Ron Patane\nMusiche \tGrizzly Bear\nScenografia \tInbal Weinberg\nCostumi \tErin Benach\n\n[img]http://s19.postimg.org/q8fnlww2b/1_cast.png[/img]\n\n\n\n    Ryan Gosling: Dean\n    Michelle Williams: Cindy\n    Faith Wladyka : Frankie\n    John Doman: Jerry\n    Mike Vogel: Bobby\n    Marshall Johnson: Marshall\n    Jen Jones: nonna di Cindy\n    Maryann Plunkett: Glenda\n    James Benatti: James\n    Barbara Troy: Jo\n    Carey Westbrook: Charley\n    Ben Shenkman: Dr. Feinberg\n\n\n[img]http://s19.postimg.org/okgi79i6r/1_trama.png[/img]. \n\nDean Pereira e Cindy Heller vivono instabilmente il loro matrimonio alternando momenti di sintonia ad altri di dissoluzione. Continui flashback ci riportano ai momenti della loro relazione presente e passata.......\n\n[img]http://s19.postimg.org/fzn6g380j/1_story.png[/img]\n\nThe relationship of a contemporary married couple, charting their evolution over a span of years by cross-cutting between time periods........\n &lt;a href=&quot;\nhttp://s19.postimg.org/9ij0s3c5v/vlcsnap_2015_02_28_16h30m13s201.png[/img]&quot; rel=&quot;nofollow&quot; target=&quot;_NEW&quot;&gt;\nhttp://s19.postimg.org/9ij0s3c5v/vlcsnap_2015_02_28_16h30m13s201.png[/img]&lt;/a&gt;\n &lt;a href=&quot;\nhttp://s19.postimg.org/f5fdpkeoj/vlcsnap_2015_02_28_16h30m27s134.png[/img]&quot; rel=&quot;nofollow&quot; target=&quot;_NEW&quot;&gt;\nhttp://s19.postimg.org/f5fdpkeoj/vlcsnap_2015_02_28_16h30m27s134.png[/img]&lt;/a&gt;\n &lt;a href=&quot;\nhttp://s19.postimg.org/971kfbvpv/vlcsnap_2015_02_28_16h30m58s119.png[/img]&quot; rel=&quot;nofollow&quot; target=&quot;_NEW&quot;&gt;\nhttp://s19.postimg.org/971kfbvpv/vlcsnap_2015_02_28_16h30m58s119.png[/img]&lt;/a&gt;\n\n[IMG]http://img153.imageshack.us/img153/3158/restateinseedblood.gif[/img]\n\n\n[img]http://imgur.com/lvhU6.gif[/img]\n\n\n[img]http://s19.postimg.org/a2jaz9qvn/1_dati.png[/img]\n\n\n[spoiler]\nGeneral\nComplete name                            : Blue Valentine (2010).ita.eng.sub.ita.eng.MIRCrewBlue Valentine (2010).ita.eng.sub.ita.eng.MIRCrew.avi\nFormat                                   : AVI\nFormat/Info                              : Audio Video Interleave\nFile size                                : 1.89 GiB\nDuration                                 : 1h 52mn\nOverall bit rate                         : 2 410 Kbps\nMovie name                               : MIRCrew by robbyrs\nWriting application                      : VirtualDubMod 1.5.10.2 (build 2540/release)\nWriting library                          : VirtualDubMod build 2540/release\n\nVideo\nID                                       : 0\nFormat                                   : MPEG-4 Visual\nFormat profile                           : Simple@L3\nFormat settings, BVOP                    : No\nFormat settings, QPel                    : No\nFormat settings, GMC                     : No warppoints\nFormat settings, Matrix                  : Default (H.263)\nCodec ID                                 : XVID\nCodec ID/Hint                            : XviD\nDuration                                 : 1h 52mn\nBit rate                                 : 1 500 Kbps\nWidth                                    : 720 pixels\nHeight                                   : 436 pixels\nDisplay aspect ratio                     : 1.658\nFrame rate                               : 23.976 fps\nColor space                              : YUV\nChroma subsampling                       : 4:2:0\nBit depth                                : 8 bits\nScan type                                : Progressive\nCompression mode                         : Lossy\nBits/(Pixel*Frame)                       : 0.199\nStream size                              : 1.17 GiB (62%)\nWriting library                          : XviD 64\n\nAudio #1\nID                                       : 1\nFormat                                   : AC-3\nFormat/Info                              : Audio Coding 3\nMode extension                           : CM (complete main)\nCodec ID                                 : 2000\nDuration                                 : 1h 52mn\nBit rate mode                            : Constant\nBit rate                                 : 448 Kbps\nChannel(s)                               : 6 channels\nChannel positions                        : Front: L C R, Side: L R, LFE\nSampling rate                            : 48.0 KHz\nBit depth                                : 16 bits\nCompression mode                         : Lossy\nStream size                              : 359 MiB (19%)\nAlignment                                : Split accross interleaves\nInterleave, duration                     : 42 ms (1.00 video frame)\nInterleave, preload duration             : 500 ms\n\nAudio #2\nID                                       : 2\nFormat                                   : AC-3\nFormat/Info                              : Audio Coding 3\nMode extension                           : CM (complete main)\nCodec ID                                 : 2000\nDuration                                 : 1h 52mn\nBit rate mode                            : Constant\nBit rate                                 : 448 Kbps\nChannel(s)                               : 6 channels\nChannel positions                        : Front: L C R, Side: L R, LFE\nSampling rate                            : 48.0 KHz\nBit depth                                : 16 bits\nCompression mode                         : Lossy\nStream size                              : 359 MiB (19%)\nAlignment                                : Split accross interleaves\nInterleave, duration                     : 42 ms (1.00 video frame)\nInterleave, preload duration             : 500 ms\n\n\n\n[/spoiler]\n\n[/color][/b][/center]\n\n&amp;&amp;e4t67uk","torrent":{"xt":"urn:btih:db5d306d282f7bd6189eee8d73b7670471ea2702","amp;dn":"Blue+Valentine+%282010%29.BRrip.XviD+-+Italian+English.Ac3+-+5.1+-+S","amp;tr":["udp%3A%2F%2Ftracker.openbittorrent.com%3A80","udp%3A%2F%2Fopen.demonii.com%3A1337","udp%3A%2F%2Ftracker.coppersurfer.tk%3A6969","udp%3A%2F%2Fexodus.desync.com%3A6969"],"infoHash":"db5d306d282f7bd6189eee8d73b7670471ea2702","infoHashBuffer":{"type":"Buffer","data":[219,93,48,109,40,47,123,214,24,158,238,141,115,183,103,4,113,234,39,2]},"announce":[],"urlList":[]}}